<svg width="49" height="48" viewBox="0 0 49 48" fill="none" xmlns="http://www.w3.org/2000/svg">
<path d="M14.6666 43L34.6666 23.4649L14.6666 5" stroke="#5BB2B3" stroke-width="8"/>
<path d="M42.6666 38H46.6666V42H2.66663V38H6.66663V8C6.66663 7.46957 6.87734 6.96086 7.25241 6.58579C7.62749 6.21071 8.13619 6 8.66663 6H28.6666C29.1971 6 29.7058 6.21071 30.0808 6.58579C30.4559 6.96086 30.6666 7.46957 30.6666 8V38H38.6666V22H34.6666V18H40.6666C41.1971 18 41.7058 18.2107 42.0808 18.5858C42.4559 18.9609 42.6666 19.4696 42.6666 20V38ZM10.6666 10V38H26.6666V10H10.6666ZM14.6666 22H22.6666V26H14.6666V22ZM14.6666 14H22.6666V18H14.6666V14Z" fill="#5F3813"/>
</svg>
