<svg width="49" height="48" viewBox="0 0 49 48" fill="none" xmlns="http://www.w3.org/2000/svg">
<path d="M14.3334 43L34.3334 23.4649L14.3334 5" stroke="#5BB2B3" stroke-width="8"/>
<path d="M40.3334 6C41.4374 6 42.3334 6.896 42.3334 8V40C42.3334 41.104 41.4374 42 40.3334 42H8.33337C7.22937 42 6.33337 41.104 6.33337 40V8C6.33337 6.896 7.22937 6 8.33337 6H40.3334ZM22.7114 26.316L10.3334 28.5V38H24.7694L22.7094 26.316H22.7114ZM38.3334 10H23.8954L28.8314 38H38.3334V10ZM19.8334 10H10.3334V24.436L22.0174 22.376L19.8334 10Z" fill="#5F3813"/>
</svg>
