<svg width="49" height="48" viewBox="0 0 49 48" fill="none" xmlns="http://www.w3.org/2000/svg">
<path d="M13.8334 43L33.8334 23.4649L13.8334 5" stroke="#5BB2B3" stroke-width="8"/>
<path d="M32.3334 26L46.2614 34.124L40.3154 35.824L44.5654 43.186L41.1014 45.186L36.8514 37.826L32.4054 42.126L32.3334 26ZM28.3334 12H32.3334V16H42.3334C42.8638 16 43.3725 16.2107 43.7476 16.5858C44.1227 16.9609 44.3334 17.4696 44.3334 18V26H40.3334V20H20.3334V40H28.3334V44H18.3334C17.8029 44 17.2942 43.7893 16.9192 43.4142C16.5441 43.0391 16.3334 42.5304 16.3334 42V32H12.3334V28H16.3334V18C16.3334 17.4696 16.5441 16.9609 16.9192 16.5858C17.2942 16.2107 17.8029 16 18.3334 16H28.3334V12ZM8.33337 28V32H4.33337V28H8.33337ZM8.33337 20V24H4.33337V20H8.33337ZM8.33337 12V16H4.33337V12H8.33337ZM8.33337 4V8H4.33337V4H8.33337ZM16.3334 4V8H12.3334V4H16.3334ZM24.3334 4V8H20.3334V4H24.3334ZM32.3334 4V8H28.3334V4H32.3334Z" fill="#5F3813"/>
</svg>
