<svg width="49" height="48" viewBox="0 0 49 48" fill="none" xmlns="http://www.w3.org/2000/svg">
<path d="M14.4166 43L34.4166 23.4649L14.4166 5" stroke="#5BB2B3" stroke-width="8"/>
<path d="M26.6666 38.0001H38.6666V19.9561L24.6666 9.06806L10.6666 19.9561V38.0001H22.6666V26.0001H26.6666V38.0001ZM42.6666 40.0001C42.6666 40.5305 42.4559 41.0392 42.0808 41.4143C41.7058 41.7893 41.1971 42.0001 40.6666 42.0001H8.66663C8.13619 42.0001 7.62749 41.7893 7.25241 41.4143C6.87734 41.0392 6.66663 40.5305 6.66663 40.0001V18.9801C6.66642 18.6753 6.73586 18.3745 6.86966 18.1007C7.00346 17.8268 7.19807 17.5872 7.43863 17.4001L23.4386 4.95606C23.7897 4.68295 24.2218 4.53467 24.6666 4.53467C25.1114 4.53467 25.5435 4.68295 25.8946 4.95606L41.8946 17.4001C42.1352 17.5872 42.3298 17.8268 42.4636 18.1007C42.5974 18.3745 42.6668 18.6753 42.6666 18.9801V40.0001Z" fill="#5F3813"/>
</svg>
