<svg width="48" height="48" viewBox="0 0 48 48" fill="none" xmlns="http://www.w3.org/2000/svg">
<path d="M14.25 43L34.25 23.4649L14.25 5" stroke="#5BB2B3" stroke-width="8"/>
<path d="M42 23.292V42C42 42.5304 41.7893 43.0391 41.4142 43.4142C41.0392 43.7893 40.5304 44 40 44H8.00001C7.46958 44 6.96087 43.7893 6.5858 43.4142C6.21072 43.0391 6.00001 42.5304 6.00001 42V23.292C4.70864 21.8319 3.99711 19.9492 4.00001 18V6C4.00001 5.46957 4.21072 4.96086 4.5858 4.58579C4.96087 4.21071 5.46958 4 6.00001 4H42C42.5304 4 43.0392 4.21071 43.4142 4.58579C43.7893 4.96086 44 5.46957 44 6V18C44 20.028 43.244 21.88 42 23.292ZM38 25.748C36.5697 26.1154 35.0657 26.0806 33.654 25.6472C32.2423 25.2138 30.9777 24.3987 30 23.292C29.2501 24.1442 28.3269 24.8265 27.2922 25.2935C26.2576 25.7605 25.1352 26.0013 24 26C22.8648 26.0013 21.7424 25.7605 20.7078 25.2935C19.6731 24.8265 18.75 24.1442 18 23.292C17.0246 24.4019 15.7603 25.2192 14.3478 25.6528C12.9353 26.0864 11.4301 26.1194 10 25.748V40H38V25.748ZM28 18C28 17.4696 28.2107 16.9609 28.5858 16.5858C28.9609 16.2107 29.4696 16 30 16C30.5304 16 31.0392 16.2107 31.4142 16.5858C31.7893 16.9609 32 17.4696 32 18C32 19.0609 32.4214 20.0783 33.1716 20.8284C33.9217 21.5786 34.9391 22 36 22C37.0609 22 38.0783 21.5786 38.8284 20.8284C39.5786 20.0783 40 19.0609 40 18V8H8.00001V18C8.00001 19.0609 8.42144 20.0783 9.17158 20.8284C9.92173 21.5786 10.9391 22 12 22C13.0609 22 14.0783 21.5786 14.8284 20.8284C15.5786 20.0783 16 19.0609 16 18C16 17.4696 16.2107 16.9609 16.5858 16.5858C16.9609 16.2107 17.4696 16 18 16C18.5304 16 19.0391 16.2107 19.4142 16.5858C19.7893 16.9609 20 17.4696 20 18C20 19.0609 20.4214 20.0783 21.1716 20.8284C21.9217 21.5786 22.9391 22 24 22C25.0609 22 26.0783 21.5786 26.8284 20.8284C27.5786 20.0783 28 19.0609 28 18Z" fill="#5F3813"/>
</svg>
