<svg width="79" height="40" viewBox="0 0 79 40" fill="none" xmlns="http://www.w3.org/2000/svg">
<path d="M7.97075 31.88C7.75742 31.88 7.58142 31.816 7.44275 31.688C7.30408 31.5707 7.23475 31.3733 7.23475 31.096C7.23475 30.808 7.30408 30.6 7.44275 30.472C7.58142 30.3547 7.75742 30.296 7.97075 30.296C8.18408 30.296 8.36008 30.36 8.49875 30.488C8.63742 30.6267 8.70675 30.8293 8.70675 31.096C8.70675 31.352 8.64275 31.544 8.51475 31.672C8.37608 31.8107 8.19475 31.88 7.97075 31.88ZM10.4028 31.88C10.1788 31.88 10.0028 31.8107 9.87475 31.672C9.74675 31.544 9.68275 31.352 9.68275 31.096C9.68275 30.8293 9.74675 30.6267 9.87475 30.488C10.0028 30.36 10.1788 30.296 10.4028 30.296C10.6374 30.296 10.8188 30.3653 10.9468 30.504C11.0854 30.6533 11.1548 30.8507 11.1548 31.096C11.1548 31.3413 11.0854 31.5333 10.9468 31.672C10.8188 31.8107 10.6374 31.88 10.4028 31.88ZM7.33675 28.84C6.61142 28.84 5.99808 28.6907 5.49675 28.392C4.99542 28.104 4.62208 27.672 4.37675 27.096C4.13142 26.52 4.00875 25.816 4.00875 24.984C4.00875 24.4187 4.05675 23.9067 4.15275 23.448C4.25942 22.9893 4.39275 22.5413 4.55275 22.104H5.54475C5.39542 22.5307 5.28342 22.968 5.20875 23.416C5.13408 23.8533 5.09675 24.3493 5.09675 24.904C5.09675 25.5653 5.18208 26.1147 5.35275 26.552C5.52342 27 5.78475 27.3307 6.13675 27.544C6.48875 27.768 6.94208 27.88 7.49675 27.88H10.3448C10.9528 27.88 11.4648 27.7947 11.8808 27.624C12.3074 27.464 12.6274 27.2507 12.8408 26.984C13.0648 26.728 13.1768 26.4667 13.1768 26.2C13.1768 25.9227 13.0594 25.704 12.8248 25.544C12.6008 25.384 12.2488 25.24 11.7688 25.112C11.2674 24.9627 10.8248 24.8187 10.4408 24.68C10.0674 24.5307 9.77408 24.3333 9.56075 24.088C9.34742 23.832 9.24075 23.4907 9.24075 23.064C9.24075 22.7547 9.28875 22.456 9.38475 22.168C9.48075 21.88 9.60875 21.608 9.76875 21.352C10.0034 20.968 10.2861 20.6373 10.6168 20.36C10.9474 20.0827 11.3048 19.864 11.6888 19.704C12.0728 19.544 12.4568 19.464 12.8408 19.464C13.0434 19.464 13.2354 19.4853 13.4168 19.528C13.6088 19.5707 13.7794 19.6347 13.9288 19.72C14.2168 19.88 14.4728 20.0987 14.6968 20.376C14.9208 20.6427 15.1768 21.0373 15.4648 21.56C15.7421 22.0507 15.9981 22.472 16.2328 22.824C16.4781 23.1653 16.7341 23.432 17.0008 23.624C17.1928 23.7733 17.3794 23.88 17.5608 23.944C17.7528 24.008 17.9554 24.04 18.1688 24.04H18.2488C18.3021 24.04 18.3288 24.0613 18.3288 24.104V24.92C18.3288 24.9733 18.3021 25 18.2488 25H18.1688C17.9021 25 17.6408 24.9627 17.3848 24.888C17.1288 24.8133 16.8781 24.696 16.6328 24.536C16.3874 24.376 16.1314 24.1733 15.8648 23.928C15.7048 23.7787 15.5448 23.5867 15.3848 23.352C15.2248 23.1067 15.0488 22.824 14.8568 22.504C14.6328 22.1307 14.4301 21.816 14.2488 21.56C14.0674 21.304 13.8861 21.096 13.7048 20.936C13.5554 20.808 13.3954 20.712 13.2248 20.648C13.0541 20.584 12.8834 20.552 12.7128 20.552C12.4248 20.552 12.1421 20.6267 11.8648 20.776C11.5874 20.9253 11.3314 21.1227 11.0968 21.368C10.8621 21.6027 10.6754 21.8587 10.5368 22.136C10.3981 22.4133 10.3288 22.68 10.3288 22.936C10.3288 23.128 10.3928 23.2933 10.5208 23.432C10.6594 23.56 10.8301 23.6667 11.0328 23.752C11.2461 23.8373 11.4594 23.912 11.6728 23.976C12.0248 24.072 12.3234 24.1627 12.5688 24.248C12.8248 24.3333 13.0488 24.4133 13.2408 24.488C13.5821 24.648 13.8434 24.84 14.0248 25.064C14.2061 25.288 14.2968 25.5493 14.2968 25.848C14.2968 26.7973 13.9608 27.5333 13.2888 28.056C12.6274 28.5787 11.6461 28.84 10.3448 28.84H7.33675ZM20.2031 28.024C19.9685 28.024 19.7871 27.9547 19.6591 27.816C19.5311 27.688 19.4671 27.496 19.4671 27.24C19.4671 26.984 19.5365 26.7867 19.6751 26.648C19.8031 26.52 19.9791 26.456 20.2031 26.456C20.4485 26.456 20.6298 26.5253 20.7471 26.664C20.8751 26.8133 20.9391 27.0053 20.9391 27.24C20.9391 27.4747 20.8751 27.6613 20.7471 27.8C20.6298 27.9493 20.4485 28.024 20.2031 28.024ZM18.0919 25C18.0385 25 18.0119 24.9733 18.0119 24.92V24.104C18.0119 24.0613 18.0385 24.04 18.0919 24.04H20.2679V17.288H21.3399V25H18.0919ZM26.2071 25V25.544C26.2071 26.2373 26.1058 26.8293 25.9031 27.32C25.7111 27.8213 25.4231 28.2 25.0391 28.456C24.6551 28.712 24.1751 28.84 23.5991 28.84C23.3431 28.84 23.0925 28.8027 22.8471 28.728C22.6018 28.664 22.3511 28.568 22.0951 28.44L22.4471 27.608C22.6498 27.704 22.8365 27.7733 23.0071 27.816C23.1885 27.8587 23.3805 27.88 23.5831 27.88C24.1058 27.88 24.5005 27.6773 24.7671 27.272C25.0445 26.8667 25.1831 26.3173 25.1831 25.624V17.288H26.2071V24.04H28.1431C28.1965 24.04 28.2231 24.0613 28.2231 24.104V24.92C28.2231 24.9733 28.1965 25 28.1431 25H26.2071ZM27.9825 25C27.9292 25 27.9025 24.9733 27.9025 24.92V24.104C27.9025 24.0613 27.9292 24.04 27.9825 24.04H30.6225C30.3558 23.8373 30.1265 23.576 29.9345 23.256C29.7425 22.936 29.5932 22.5787 29.4865 22.184C29.3798 21.7893 29.3265 21.3787 29.3265 20.952C29.3265 20.1413 29.4812 19.4533 29.7905 18.888C30.0998 18.3227 30.5265 17.8907 31.0705 17.592C31.6252 17.2827 32.2598 17.128 32.9745 17.128C33.3905 17.128 33.7798 17.176 34.1425 17.272C34.5052 17.3573 34.8038 17.4587 35.0385 17.576L34.6865 18.488C34.3878 18.36 34.0892 18.264 33.7905 18.2C33.5025 18.1253 33.2092 18.088 32.9105 18.088C32.3878 18.088 31.9398 18.2053 31.5665 18.44C31.1932 18.664 30.9105 18.9947 30.7185 19.432C30.5265 19.8587 30.4305 20.3813 30.4305 21C30.4305 21.5973 30.5212 22.1253 30.7025 22.584C30.8945 23.0427 31.1505 23.4 31.4705 23.656C31.7905 23.912 32.1478 24.04 32.5425 24.04H35.3105V25H27.9825Z" fill="white"/>
<path d="M63 32C61.3485 32 59.7929 31.6844 58.3333 31.0533C56.8738 30.4222 55.6027 29.5644 54.52 28.48C53.4373 27.3956 52.5796 26.1244 51.9467 24.6667C51.3138 23.2089 50.9982 21.6533 51 20C51 18.344 51.3156 16.7871 51.9467 15.3293C52.5778 13.8716 53.4356 12.6018 54.52 11.52C55.6045 10.4382 56.8756 9.58089 58.3333 8.948C59.7911 8.31511 61.3467 7.99911 63 8C64.656 8 66.2129 8.31556 67.6707 8.94667C69.1285 9.57778 70.3987 10.4356 71.4813 11.52C72.564 12.6044 73.4209 13.8742 74.052 15.3293C74.6831 16.7844 74.9991 18.3413 75 20C75 21.6516 74.6845 23.2071 74.0533 24.6667C73.4222 26.1262 72.5645 27.3973 71.48 28.48C70.3956 29.5627 69.1258 30.4204 67.6707 31.0533C66.2156 31.6862 64.6587 32.0018 63 32ZM63 30.6773C63.7822 29.672 64.4276 28.6849 64.936 27.716C65.4445 26.7471 65.8573 25.6627 66.1747 24.4627H59.8253C60.1773 25.7302 60.5987 26.8484 61.0893 27.8173C61.58 28.7862 62.2169 29.7396 63 30.6773ZM61.3027 30.4773C60.6805 29.744 60.1125 28.8373 59.5987 27.7573C59.0849 26.6782 58.7027 25.5796 58.452 24.4613H53.3373C54.1018 26.12 55.1849 27.48 56.5867 28.5413C57.9885 29.6027 59.56 30.248 61.3013 30.4773M64.696 30.4773C66.4365 30.248 68.008 29.6027 69.4107 28.5413C70.8133 27.48 71.8965 26.12 72.66 24.4613H67.548C67.2102 25.5964 66.7849 26.704 66.272 27.784C65.7582 28.8631 65.2329 29.7609 64.696 30.4773ZM52.7933 23.128H58.1733C58.072 22.5813 58.0009 22.0484 57.96 21.5293C57.9173 21.0102 57.896 20.5004 57.896 20C57.896 19.4996 57.9169 18.9898 57.9587 18.4707C58.0005 17.9516 58.0716 17.4182 58.172 16.8707H52.796C52.6511 17.3329 52.5378 17.8364 52.456 18.3813C52.3742 18.9262 52.3333 19.4658 52.3333 20C52.3333 20.5342 52.3738 21.0738 52.4547 21.6187C52.5356 22.1636 52.6489 22.6667 52.7947 23.128M59.508 23.128H66.492C66.5933 22.5813 66.6645 22.0569 66.7053 21.5547C66.7462 21.0524 66.768 20.5342 66.7707 20C66.7733 19.4658 66.7525 18.9476 66.708 18.4453C66.6636 17.9431 66.5925 17.4187 66.4947 16.872H59.5067C59.4062 17.4187 59.3351 17.9431 59.2933 18.4453C59.2516 18.9476 59.2307 19.4658 59.2307 20C59.2307 20.5342 59.2516 21.0524 59.2933 21.5547C59.3351 22.0569 59.4076 22.5813 59.508 23.128ZM67.8267 23.128H73.2053C73.3502 22.6658 73.4636 22.1627 73.5453 21.6187C73.6271 21.0747 73.6676 20.5351 73.6667 20C73.6658 19.4649 73.6253 18.9253 73.5453 18.3813C73.4653 17.8373 73.352 17.3342 73.2053 16.872H67.8253C67.9267 17.4187 67.9978 17.9516 68.0387 18.4707C68.0813 18.9898 68.1027 19.4996 68.1027 20C68.1027 20.5004 68.0818 21.0102 68.04 21.5293C67.9982 22.0484 67.9271 22.5818 67.8267 23.1293M67.5493 15.5387H72.6613C71.88 13.8462 70.8098 12.4862 69.4507 11.4587C68.0907 10.4311 66.5062 9.77778 64.6973 9.49867C65.3196 10.3164 65.8791 11.2524 66.376 12.3067C66.8729 13.3609 67.264 14.4382 67.5493 15.5387ZM59.8253 15.5387H66.1747C65.8227 14.2871 65.3885 13.1556 64.872 12.144C64.3556 11.1324 63.7316 10.192 63 9.32267C62.2685 10.1911 61.6445 11.1316 61.128 12.144C60.6125 13.1556 60.1782 14.2871 59.8253 15.5387ZM53.3387 15.5387H58.4507C58.7369 14.4373 59.128 13.36 59.624 12.3067C60.12 11.2533 60.6796 10.3169 61.3027 9.49734C59.4769 9.77734 57.8885 10.4351 56.5373 11.4707C55.1862 12.5062 54.1196 13.8618 53.3373 15.5373" fill="white"/>
</svg>
