<svg width="825" height="162" viewBox="0 0 825 162" fill="none" xmlns="http://www.w3.org/2000/svg">
<g clip-path="url(#clip0_1_222)">
<path d="M187.626 106.488L157.621 136.492L127.617 106.488L157.621 76.4832L187.626 106.488ZM178.602 106.488L157.621 85.5065L136.64 106.488L157.621 127.469L178.602 106.488Z" fill="#B59668"/>
<path d="M366.09 55.5021L336.086 85.5065L306.081 55.5021L336.086 25.4976L366.09 55.5021ZM357.067 55.5021L336.086 34.521L315.105 55.5021L336.086 76.4831L357.067 55.5021Z" fill="#B59668"/>
<path d="M417.086 55.5021L387.081 85.5065L357.077 55.5021L387.081 25.4976L417.086 55.5021ZM408.052 55.5021L387.071 34.521L366.09 55.5021L387.071 76.4831L408.052 55.5021Z" fill="#B59668"/>
<path d="M123.891 119.236L93.887 149.241L63.8825 119.236L93.887 89.2321L123.891 119.236ZM114.868 119.236L93.887 98.2554L72.9059 119.236L93.887 140.218L114.868 119.236Z" fill="#B59668"/>
<path d="M646.536 30.0043L616.531 60.0088L586.527 30.0043L616.531 -0.000123382L646.536 30.0043ZM637.512 30.0043L616.531 9.02324L595.55 30.0043L616.531 50.9854L637.512 30.0043Z" fill="#B59668"/>
<path d="M238.621 55.5021L208.617 85.5065L178.613 55.5021L208.617 25.4976L238.621 55.5021ZM229.598 55.5021L208.617 34.521L187.636 55.5021L208.617 76.4831L229.598 55.5021Z" fill="#B59668"/>
<path d="M187.626 55.5021L157.621 85.5065L127.617 55.5021L157.621 25.4976L187.626 55.5021ZM178.602 55.5021L157.621 34.521L136.64 55.5021L157.621 76.4831L178.602 55.5021Z" fill="#B59668"/>
<path d="M774.015 106.488L744.01 136.492L714.006 106.488L744.01 76.4832L774.015 106.488ZM764.981 106.488L744 85.5065L723.019 106.488L744 127.469L764.981 106.488Z" fill="#B59668"/>
<path d="M825 106.488L794.996 136.492L764.991 106.488L794.996 76.4832L825 106.488ZM815.977 106.488L794.996 85.5065L774.014 106.488L794.996 127.469L815.977 106.488Z" fill="#B59668"/>
<path d="M136.64 55.502L93.887 98.2554L51.1337 55.502L93.887 12.7487L136.64 55.502ZM127.617 55.502L93.887 21.7721L60.157 55.502L93.887 89.232L127.617 55.502Z" fill="#B59668"/>
<path d="M570.052 106.488L540.048 136.492L510.043 106.488L540.048 76.4832L570.052 106.488ZM561.029 106.488L540.048 85.5065L519.067 106.488L540.048 127.469L561.029 106.488Z" fill="#B59668"/>
<path d="M238.621 106.488L208.617 136.492L178.613 106.488L208.617 76.4832L238.621 106.488ZM229.598 106.488L208.617 85.5065L187.636 106.488L208.617 127.469L229.598 106.488Z" fill="#B59668"/>
<path d="M468.071 55.5021L438.067 85.5065L408.062 55.5021L438.067 25.4976L468.071 55.5021ZM459.048 55.5021L438.067 34.521L417.086 55.5021L438.067 76.4831L459.048 55.5021Z" fill="#B59668"/>
<path d="M60.157 106.488L30.1526 136.492L0.148173 106.488L30.1526 76.4832L60.157 106.488ZM51.1337 106.488L30.1526 85.5065L9.17155 106.488L30.1526 127.469L51.1337 106.488Z" fill="#B59668"/>
<path d="M315.105 30.0043L285.1 60.0088L255.096 30.0043L285.1 -0.000123382L315.105 30.0043ZM306.081 30.0043L285.1 9.02324L264.119 30.0043L285.1 50.9854L306.081 30.0043Z" fill="#B59668"/>
<path d="M442.583 106.488L412.579 136.492L382.575 106.488L412.579 76.4832L442.583 106.488ZM433.55 106.488L412.569 85.5065L391.588 106.488L412.569 127.469L433.55 106.488Z" fill="#B59668"/>
<path d="M391.588 106.488L361.584 136.492L331.579 106.488L361.584 76.4832L391.588 106.488ZM382.565 106.488L361.584 85.5065L340.602 106.488L361.584 127.469L382.565 106.488Z" fill="#B59668"/>
<path d="M340.602 106.488L285.1 161.99L229.598 106.488L285.1 50.9854L340.602 106.488ZM331.569 106.488L285.09 60.0088L238.611 106.488L285.09 152.966L331.569 106.488Z" fill="#B59668"/>
<path d="M570.052 30.0043L540.048 60.0088L510.043 30.0043L540.048 -0.000123382L570.052 30.0043ZM561.029 30.0043L540.048 9.02324L519.067 30.0043L540.048 50.9854L561.029 30.0043Z" fill="#B59668"/>
<path d="M753.033 30.0043L723.029 60.0088L693.025 30.0043L723.019 -0.000123382L753.023 30.0043L753.033 30.0043ZM744 30.0043L723.019 9.02324L702.038 30.0043L723.019 50.9854L744 30.0043Z" fill="#B59668"/>
<path d="M60.157 55.5021L30.1526 85.5065L0.148173 55.5021L30.1526 25.4976L60.157 55.5021ZM51.1337 55.5021L30.1526 34.521L9.17155 55.5021L30.1526 76.4831L51.1337 55.5021Z" fill="#B59668"/>
<path d="M519.067 106.488L476.313 149.241L433.56 106.488L476.313 63.7343L519.067 106.488ZM510.033 106.488L476.303 72.7577L442.573 106.488L476.303 140.218L510.033 106.488Z" fill="#B59668"/>
<path d="M672.033 106.488L616.531 161.99L561.029 106.488L616.531 50.9854L672.033 106.488ZM663 106.488L616.521 60.0088L570.042 106.488L616.521 152.966L663 106.488Z" fill="#B59668"/>
<path d="M723.019 106.488L693.014 136.492L663.01 106.488L693.014 76.4832L723.019 106.488ZM713.996 106.488L693.014 85.5065L672.033 106.488L693.014 127.469L713.996 106.488Z" fill="#B59668"/>
</g>
<defs>
<clipPath id="clip0_1_222">
<rect width="162" height="824.862" fill="white" transform="translate(825) rotate(90)"/>
</clipPath>
</defs>
</svg>
