<svg width="162" height="264" viewBox="0 0 162 264" fill="none" xmlns="http://www.w3.org/2000/svg">
<path d="M30.0044 178.464L60.0089 208.469L30.0044 238.473L0 208.469L30.0044 178.464ZM30.0044 187.488L9.02337 208.469L30.0044 229.45L50.9855 208.469L30.0044 187.488Z" fill="#21B4B3"/>
<path d="M106.488 50.9858L136.492 80.9903L106.488 110.995L76.4834 80.9903L106.488 50.9858ZM106.488 60.0192L85.5068 81.0003L106.488 101.981L127.469 81.0003L106.488 60.0192Z" fill="#21B4B3"/>
<path d="M106.488 0L136.492 30.0044L106.488 60.0089L76.4834 30.0044L106.488 0ZM106.488 9.02337L85.5068 30.0044L106.488 50.9855L127.469 30.0044L106.488 9.02337Z" fill="#21B4B3"/>
<path d="M30.0044 71.9668L60.0089 101.971L30.0044 131.976L0 101.981L30.0044 71.9768V71.9668ZM30.0044 81.0002L9.02337 101.981L30.0044 122.962L50.9855 101.981L30.0044 81.0002Z" fill="#BD9460"/>
<path d="M106.488 152.967L161.99 208.469L106.488 263.971L50.9854 208.469L106.488 152.967ZM106.488 162L60.0087 208.479L106.488 254.958L152.966 208.479L106.488 162Z" fill="#62401F"/>
<path d="M106.488 101.981L136.492 131.985L106.488 161.99L76.4834 131.985L106.488 101.981ZM106.488 111.004L85.5068 131.985L106.488 152.966L127.469 131.985L106.488 111.004Z" fill="#62401F"/>
</svg>
