<svg width="364" height="133" viewBox="0 0 364 133" fill="none" xmlns="http://www.w3.org/2000/svg">
<g clip-path="url(#clip0_24_46)">
<path d="M112.635 45.8006L88.0674 70.3679L63.5 45.8006L88.0674 21.2332L112.635 45.8006ZM105.247 45.8006L88.0674 28.6214L70.8882 45.8006L88.0674 62.9797L105.247 45.8006Z" fill="#B59668"/>
<path d="M154.39 45.8006L129.822 70.3679L105.255 45.8006L129.822 21.2332L154.39 45.8006ZM146.993 45.8006L129.814 28.6214L112.635 45.8006L129.814 62.9797L146.993 45.8006Z" fill="#B59668"/>
<path d="M342.262 24.9231L317.694 49.4905L293.127 24.9231L317.694 0.355712L342.262 24.9231ZM334.873 24.9231L317.694 7.74397L300.515 24.9231L317.694 42.1022L334.873 24.9231Z" fill="#B59668"/>
<path d="M279.638 87.5469L255.07 112.114L230.503 87.5469L255.07 62.9795L279.638 87.5469ZM272.249 87.5469L255.07 70.3677L237.891 87.5469L255.07 104.726L272.249 87.5469Z" fill="#B59668"/>
<path d="M196.136 45.8006L171.569 70.3679L147.001 45.8006L171.569 21.2332L196.136 45.8006ZM188.748 45.8006L171.569 28.6214L154.39 45.8006L171.569 62.9797L188.748 45.8006Z" fill="#B59668"/>
<path d="M70.8887 24.9231L46.3213 49.4905L21.7539 24.9231L46.3213 0.355712L70.8887 24.9231ZM63.5004 24.9231L46.3213 7.74397L29.1422 24.9231L46.3213 42.1022L63.5004 24.9231Z" fill="#B59668"/>
<path d="M175.267 87.5469L150.7 112.114L126.132 87.5469L150.7 62.9795L175.267 87.5469ZM167.871 87.5469L150.691 70.3677L133.512 87.5469L150.691 104.726L167.871 87.5469Z" fill="#B59668"/>
<path d="M133.512 87.5469L108.945 112.114L84.3774 87.5469L108.945 62.9795L133.512 87.5469ZM126.124 87.5469L108.945 70.3677L91.7657 87.5469L108.945 104.726L126.124 87.5469Z" fill="#B59668"/>
<path d="M91.7661 87.5468L46.3214 132.992L0.876554 87.5468L46.3214 42.102L91.7661 87.5468ZM84.3696 87.5468L46.3132 49.4903L8.25661 87.5468L46.3131 125.603L84.3696 87.5468Z" fill="#B59668"/>
<path d="M279.638 24.9231L255.07 49.4905L230.503 24.9231L255.07 0.355712L279.638 24.9231ZM272.249 24.9231L255.07 7.74397L237.891 24.9231L255.07 42.1022L272.249 24.9231Z" fill="#B59668"/>
<path d="M237.891 87.5469L202.885 122.553L167.879 87.5469L202.885 52.5408L237.891 87.5469ZM230.495 87.5469L202.877 59.929L175.259 87.5469L202.877 115.165L230.495 87.5469Z" fill="#B59668"/>
<path d="M363.139 87.5468L317.694 132.992L272.25 87.5468L317.694 42.102L363.139 87.5468ZM355.743 87.5468L317.686 49.4903L279.63 87.5468L317.686 125.603L355.743 87.5468Z" fill="#B59668"/>
</g>
<defs>
<clipPath id="clip0_24_46">
<rect width="133" height="363" fill="white" transform="translate(363.5) rotate(90)"/>
</clipPath>
</defs>
</svg>
