<svg width="132" height="400" viewBox="0 0 132 400" fill="none" xmlns="http://www.w3.org/2000/svg">
<g opacity="0.5">
<path d="M47.103 77.2597L1.63681 122.726L47.103 168.192L92.5693 122.726L47.103 77.2597ZM47.103 90.9481L78.896 122.741L47.103 154.534L15.3101 122.741L47.103 90.9481Z" fill="#B59668"/>
<path d="M47.103 0L1.63681 45.4662L47.103 90.9325L92.5693 45.4662L47.103 0ZM47.103 13.6733L78.896 45.4662L47.103 77.2592L15.3101 45.4662L47.103 13.6733Z" fill="#B59668"/>
<path d="M47.1035 231.793L-37 315.897L47.1035 400L131.207 315.897L47.1035 231.793ZM47.1035 245.482L117.534 315.912L47.1035 386.342L-23.3267 315.912L47.1035 245.482Z" fill="#B59668"/>
<path d="M47.103 154.533L1.63681 200L47.103 245.466L92.5693 200L47.103 154.533ZM47.103 168.207L78.896 200L47.103 231.793L15.3101 200L47.103 168.207Z" fill="#B59668"/>
</g>
</svg>
