<svg width="129" height="400" viewBox="0 0 129 400" fill="none" xmlns="http://www.w3.org/2000/svg">
<g opacity="0.5">
<path d="M84.8962 77.2598L39.43 122.726L84.8962 168.192L130.362 122.726L84.8962 77.2598ZM84.8962 90.9482L116.689 122.741L84.8962 154.534L53.1032 122.741L84.8962 90.9482Z" fill="#B59668"/>
<path d="M84.8962 0L39.43 45.4662L84.8962 90.9325L130.362 45.4662L84.8962 0ZM84.8962 13.6733L116.689 45.4662L84.8962 77.2592L53.1032 45.4662L84.8962 13.6733Z" fill="#B59668"/>
<path d="M84.8966 231.793L0.793121 315.897L84.8966 400L169 315.897L84.8966 231.793ZM84.8966 245.482L155.327 315.912L84.8966 386.342L14.4664 315.912L84.8966 245.482Z" fill="#B59668"/>
<path d="M84.8962 154.533L39.43 200L84.8962 245.466L130.362 200L84.8962 154.533ZM84.8962 168.207L116.689 200L84.8962 231.793L53.1032 200L84.8962 168.207Z" fill="#B59668"/>
</g>
</svg>
