<svg width="130" height="66" viewBox="0 0 130 66" fill="none" xmlns="http://www.w3.org/2000/svg">
<g clip-path="url(#clip0_1_27)">
<path d="M112.435 22.06L90.8749 0.5L86.5649 4.81L103.815 22.06L99.5049 26.37L90.8749 17.75L77.9349 30.69L82.2549 35L90.8749 26.37L95.1849 30.69L86.5649 39.31L90.8749 43.62L112.435 22.06Z" fill="white"/>
<path d="M108.125 0.5L103.815 4.81L121.065 22.06L103.815 39.31L108.125 43.62L129.685 22.06L108.125 0.5Z" fill="white"/>
<path d="M65.0049 26.37L52.0649 39.31L56.3749 43.62L65.0049 35L73.6249 43.62L77.9349 39.31L65.0049 26.37Z" fill="white"/>
<path d="M73.6249 0.5L69.3149 4.81L77.9349 13.44L73.6249 17.75L65.0049 9.12L34.8149 39.31L39.1249 43.62L65.0049 17.75L73.6249 26.37L86.5649 13.44L73.6249 0.5Z" fill="white"/>
<path d="M56.3749 0.5L47.7549 9.12L39.1249 0.5L34.8149 4.81L47.7549 17.75L60.6849 4.81L56.3749 0.5Z" fill="white"/>
<path d="M21.8749 0.5L0.314941 22.06L21.8749 43.62L43.4349 22.06L21.8749 0.5ZM21.8749 35L8.93494 22.06L21.8749 9.12L34.8149 22.06L21.8749 35Z" fill="white"/>
<path d="M65.0049 26.37L52.0649 39.31L56.3749 43.62L65.0049 35L73.6249 43.62L77.9349 39.31L65.0049 26.37Z" fill="white"/>
<path d="M34.5949 57.54H33.6549C33.5249 57.54 33.4249 57.64 33.4249 57.77V60.83H29.8249V57.77C29.8249 57.64 29.7249 57.54 29.5949 57.54H28.6549C28.5249 57.54 28.4249 57.64 28.4249 57.77V65.16C28.4249 65.29 28.5249 65.39 28.6549 65.39H29.5949C29.7249 65.39 29.8249 65.29 29.8249 65.16V62.07H33.4249V65.16C33.4249 65.29 33.5249 65.39 33.6549 65.39H34.5949C34.7249 65.39 34.8249 65.29 34.8249 65.16V57.77C34.8249 57.64 34.7249 57.54 34.5949 57.54Z" fill="white"/>
<path d="M54.7649 57.54H49.3649C49.2349 57.54 49.1349 57.64 49.1349 57.77V65.16C49.1349 65.29 49.2349 65.39 49.3649 65.39H54.7649C54.8949 65.39 54.9949 65.29 54.9949 65.16V64.37C54.9949 64.24 54.8949 64.14 54.7649 64.14H50.5349V62.06H54.1549C54.2849 62.06 54.3849 61.96 54.3849 61.83V61.04C54.3849 60.91 54.2849 60.81 54.1549 60.81H50.5349V58.77H54.7649C54.8949 58.77 54.9949 58.67 54.9949 58.54V57.75C54.9949 57.62 54.8949 57.52 54.7649 57.52V57.54Z" fill="white"/>
<path d="M71.115 57.54H65.715C65.585 57.54 65.485 57.64 65.485 57.77V65.16C65.485 65.29 65.585 65.39 65.715 65.39H71.115C71.245 65.39 71.345 65.29 71.345 65.16V64.37C71.345 64.24 71.245 64.14 71.115 64.14H66.885V62.06H70.505C70.635 62.06 70.735 61.96 70.735 61.83V61.04C70.735 60.91 70.635 60.81 70.505 60.81H66.885V58.77H71.115C71.245 58.77 71.345 58.67 71.345 58.54V57.75C71.345 57.62 71.245 57.52 71.115 57.52V57.54Z" fill="white"/>
<path d="M77.3649 64.15H74.4149V57.77C74.4149 57.64 74.3149 57.54 74.1849 57.54H73.2449C73.1149 57.54 73.0149 57.64 73.0149 57.77V65.25C73.0149 65.33 73.0749 65.39 73.1549 65.39H77.3649C77.4949 65.39 77.5949 65.29 77.5949 65.16V64.37C77.5949 64.24 77.4949 64.14 77.3649 64.14V64.15Z" fill="white"/>
<path d="M82.6049 57.4301C80.3649 57.4301 78.5049 59.1701 78.5049 61.4801C78.5049 63.7901 80.3749 65.5001 82.6049 65.5001C84.8349 65.5001 86.6949 63.7801 86.6949 61.4801C86.6949 59.1801 84.8249 57.4301 82.6049 57.4301ZM82.6049 64.1701C81.1149 64.1701 79.9249 62.9401 79.9249 61.4701C79.9249 60.0001 81.1149 58.7501 82.6049 58.7501C84.0949 58.7501 85.2749 60.0001 85.2749 61.4701C85.2749 62.9401 84.0749 64.1701 82.6049 64.1701Z" fill="white"/>
<path d="M91.675 57.54H88.445C88.315 57.54 88.215 57.64 88.215 57.77V65.16C88.215 65.29 88.315 65.39 88.445 65.39H89.385C89.515 65.39 89.615 65.29 89.615 65.16V62.91H91.675C93.165 62.91 94.375 61.8 94.375 60.22C94.375 58.64 93.165 57.53 91.675 57.53V57.54ZM91.375 61.68H89.615V58.77H91.375C92.215 58.77 92.945 59.23 92.945 60.22C92.945 61.21 92.215 61.67 91.375 61.67V61.68Z" fill="white"/>
<path d="M114.625 57.54H109.225C109.095 57.54 108.995 57.64 108.995 57.77V65.16C108.995 65.29 109.095 65.39 109.225 65.39H114.625C114.755 65.39 114.855 65.29 114.855 65.16V64.37C114.855 64.24 114.755 64.14 114.625 64.14H110.395V62.06H114.015C114.145 62.06 114.245 61.96 114.245 61.83V61.04C114.245 60.91 114.145 60.81 114.015 60.81H110.395V58.77H114.625C114.755 58.77 114.855 58.67 114.855 58.54V57.75C114.855 57.62 114.755 57.52 114.625 57.52V57.54Z" fill="white"/>
<path d="M129.465 57.54H123.915C123.785 57.54 123.685 57.64 123.685 57.77V58.56C123.685 58.69 123.785 58.79 123.915 58.79H125.995V65.17C125.995 65.3 126.095 65.4 126.225 65.4H127.165C127.295 65.4 127.395 65.3 127.395 65.17V58.79H129.475C129.605 58.79 129.705 58.69 129.705 58.56V57.77C129.705 57.64 129.605 57.54 129.475 57.54H129.465Z" fill="white"/>
<path d="M104.195 57.44C103.075 57.35 102.065 57.85 101.445 58.65C100.905 57.95 100.085 57.48 99.1349 57.43C97.3649 57.34 95.885 58.73 95.825 60.47V65.16C95.825 65.29 95.9249 65.39 96.0549 65.39H96.935C97.065 65.39 97.1649 65.29 97.1649 65.16V60.65C97.1649 59.71 97.855 58.86 98.795 58.77C99.875 58.66 100.785 59.51 100.785 60.57V65.16C100.785 65.29 100.885 65.39 101.015 65.39H101.895C102.025 65.39 102.125 65.29 102.125 65.16V60.65C102.125 59.71 102.815 58.86 103.745 58.77C104.825 58.66 105.735 59.51 105.735 60.57V65.16C105.735 65.29 105.845 65.39 105.965 65.39H106.845C106.975 65.39 107.075 65.29 107.075 65.16V60.68C107.075 59.02 105.845 57.57 104.195 57.43V57.44Z" fill="white"/>
<path d="M119.855 57.4401C117.975 57.2901 116.395 58.7501 116.335 60.5801V65.1601C116.335 65.2901 116.435 65.3901 116.565 65.3901H117.495C117.625 65.3901 117.725 65.2901 117.725 65.1601V60.6801C117.725 59.5701 118.695 58.6801 119.835 58.8301C120.775 58.9501 121.455 59.8001 121.455 60.7501V65.1601C121.455 65.2901 121.555 65.3901 121.685 65.3901H122.615C122.745 65.3901 122.845 65.2901 122.845 65.1601V63.6701V60.7901C122.845 59.0701 121.565 57.5601 119.845 57.4301L119.855 57.4401Z" fill="white"/>
<path d="M62.755 57.54C62.655 57.54 62.565 57.61 62.535 57.71C62.275 58.69 60.965 63.6 60.965 63.61C60.885 63.9 60.635 64.11 60.355 64.16C60.355 64.16 60.275 64.17 60.235 64.17C60.195 64.17 60.115 64.17 60.115 64.16C59.835 64.11 59.585 63.9 59.505 63.61C59.505 63.61 58.195 58.69 57.935 57.71C57.905 57.61 57.815 57.54 57.715 57.54H56.775C56.625 57.54 56.515 57.68 56.545 57.83L58.185 64.04C58.435 64.81 59.095 65.36 59.915 65.47C60.025 65.49 60.125 65.49 60.215 65.49C60.305 65.49 60.405 65.49 60.515 65.47C61.335 65.36 61.995 64.81 62.245 64.04L63.885 57.83C63.925 57.68 63.815 57.54 63.655 57.54H62.715H62.755Z" fill="white"/>
<path d="M23.445 57.4401C21.325 57.4401 20.365 59.1901 20.365 60.8001V65.1701C20.365 65.3001 20.465 65.4001 20.595 65.4001H21.535C21.665 65.4001 21.765 65.3001 21.765 65.1701V62.8901H25.125V65.1701C25.125 65.3001 25.225 65.4001 25.355 65.4001H26.295C26.425 65.4001 26.525 65.3001 26.525 65.1701V60.8001C26.525 59.2001 25.575 57.4401 23.455 57.4401H23.445ZM25.115 61.6401H21.755V60.8201C21.755 59.5401 22.435 58.7701 23.435 58.7701C24.435 58.7701 25.105 59.5401 25.105 60.8201V61.6401H25.115Z" fill="white"/>
<path d="M10.275 57.54H9.34499C9.21796 57.54 9.11499 57.643 9.11499 57.77V65.16C9.11499 65.2871 9.21796 65.39 9.34499 65.39H10.275C10.402 65.39 10.505 65.2871 10.505 65.16V57.77C10.505 57.643 10.402 57.54 10.275 57.54Z" fill="white"/>
<path d="M6.20494 58.69C5.47494 57.96 4.54494 57.55 3.42494 57.55H0.544941C0.414941 57.55 0.314941 57.65 0.314941 57.78V65.17C0.314941 65.3 0.414941 65.4001 0.544941 65.4001H3.32494C5.51494 65.4001 7.33494 63.7301 7.33494 61.4701C7.33494 60.3901 6.90494 59.41 6.20494 58.69ZM3.23494 64.1301H1.71494V58.7701H2.87494C3.52494 58.7701 4.39494 58.86 5.04494 59.46C5.57494 59.97 5.90494 60.6101 5.90494 61.4701C5.90494 62.9501 4.72494 64.1301 3.22494 64.1301H3.23494Z" fill="white"/>
<path d="M46.515 58.69C45.785 57.96 44.855 57.55 43.735 57.55H40.855C40.725 57.55 40.625 57.65 40.625 57.78V65.17C40.625 65.3 40.725 65.4001 40.855 65.4001H43.635C45.825 65.4001 47.645 63.7301 47.645 61.4701C47.645 60.3901 47.215 59.41 46.515 58.69ZM43.535 64.1301H42.015V58.7701H43.175C43.825 58.7701 44.695 58.86 45.345 59.46C45.875 59.97 46.205 60.6101 46.205 61.4701C46.205 62.9501 45.025 64.1301 43.525 64.1301H43.535Z" fill="white"/>
<path d="M16.845 62.4901C17.925 62.2401 18.755 61.2801 18.755 60.0601C18.755 58.6601 17.635 57.55 16.285 57.55H12.705C12.575 57.55 12.475 57.65 12.475 57.78V65.17C12.475 65.3 12.575 65.4001 12.705 65.4001H13.645C13.775 65.4001 13.875 65.3 13.875 65.17V62.5601H15.255L16.915 65.2901C16.955 65.3501 17.025 65.39 17.095 65.39H18.225C18.395 65.39 18.495 65.2 18.405 65.06L16.825 62.48L16.845 62.4901ZM13.885 61.3301V58.7701H15.645H16.005C16.565 58.7701 17.335 59.2401 17.335 60.0601C17.335 60.8801 16.585 61.3301 15.955 61.3301H13.895H13.885Z" fill="white"/>
</g>
<defs>
<clipPath id="clip0_1_27">
<rect width="129.37" height="65" fill="white" transform="translate(0.314941 0.5)"/>
</clipPath>
</defs>
</svg>
